<svg width="1087.2" height="308" viewBox="0 0 1087.2 308" xmlns="http://www.w3.org/2000/svg"><rect x="0" y="0" width="1087.2" height="308" rx="64" fill="#19211F"/><g fill="none" stroke="#6FD4BC" stroke-width="30.86" stroke-linecap="round" stroke-linejoin="round"><path d="M95.4 133.4 L157.1 85.4 L218.9 133.4"/><path d="M95.4 178.0 L157.1 130.0 L218.9 178.0" stroke-opacity="0.6"/><path d="M95.4 222.6 L157.1 174.6 L218.9 222.6" stroke-opacity="0.38"/></g><g transform="translate(290.29,213.59) scale(0.17000,-0.17000)"><path d="M500 698V585H209V406H432V295H209V0H69V698Z" fill="#ECF3F1"/></g><g transform="translate(380.39,213.59) scale(0.17000,-0.17000)"><path d="M54 702Q54 737 78.5 760.5Q103 784 140 784Q177 784 201.5 760.5Q226 737 226 702Q226 667 201.5 643.5Q177 620 140 620Q103 620 78.5 643.5Q54 667 54 702ZM209 554V0H69V554Z" fill="#ECF3F1"/></g><g transform="translate(427.65,213.59) scale(0.17000,-0.17000)"><path d="M379 562V415H342Q276 415 242.5 384.0Q209 353 209 276V0H69V554H209V468Q236 512 279.5 537.0Q323 562 379 562Z" fill="#ECF3F1"/></g><g transform="translate(496.33,213.59) scale(0.17000,-0.17000)"><path d="M39 175H180Q184 143 211.5 122.0Q239 101 280 101Q320 101 342.5 117.0Q365 133 365 158Q365 185 337.5 198.5Q310 212 250 228Q188 243 148.5 259.0Q109 275 80.5 308.0Q52 341 52 397Q52 443 78.5 481.0Q105 519 154.5 541.0Q204 563 271 563Q370 563 429.0 513.5Q488 464 494 380H360Q357 413 332.5 432.5Q308 452 267 452Q229 452 208.5 438.0Q188 424 188 399Q188 371 216.0 356.5Q244 342 303 327Q363 312 402.0 296.0Q441 280 469.5 246.5Q498 213 499 158Q499 110 472.5 72.0Q446 34 396.5 12.5Q347 -9 281 -9Q213 -9 159.0 15.5Q105 40 73.5 82.0Q42 124 39 175Z" fill="#ECF3F1"/></g><g transform="translate(588.98,213.59) scale(0.17000,-0.17000)"><path d="M232 439V171Q232 143 245.5 130.5Q259 118 291 118H356V0H268Q91 0 91 172V439H25V554H91V691H232V554H356V439Z" fill="#ECF3F1"/></g><g transform="translate(654.94,213.59) scale(0.17000,-0.17000)"><path d="M326 268H209V0H69V698H326Q407 698 464.0 670.0Q521 642 549.5 593.0Q578 544 578 482Q578 426 551.5 377.0Q525 328 468.5 298.0Q412 268 326 268ZM434 482Q434 584 320 584H209V381H320Q378 381 406.0 407.5Q434 434 434 482Z" fill="#6FD4BC"/></g><g transform="translate(758.30,213.59) scale(0.17000,-0.17000)"><path d="M54 702Q54 737 78.5 760.5Q103 784 140 784Q177 784 201.5 760.5Q226 737 226 702Q226 667 201.5 643.5Q177 620 140 620Q103 620 78.5 643.5Q54 667 54 702ZM209 554V0H69V554Z" fill="#6FD4BC"/></g><g transform="translate(805.56,213.59) scale(0.17000,-0.17000)"><path d="M307 563Q410 563 477.5 511.5Q545 460 568 367H417Q405 403 376.5 423.5Q348 444 306 444Q246 444 211.0 400.5Q176 357 176 277Q176 198 211.0 154.5Q246 111 306 111Q391 111 417 187H568Q545 97 477.0 44.0Q409 -9 307 -9Q227 -9 165.0 26.5Q103 62 68.0 126.5Q33 191 33 277Q33 363 68.0 427.5Q103 492 165.0 527.5Q227 563 307 563Z" fill="#6FD4BC"/></g><g transform="translate(907.90,213.59) scale(0.17000,-0.17000)"><path d="M397 0 209 236V0H69V740H209V319L395 554H577L333 276L579 0Z" fill="#6FD4BC"/></g></svg>